<svg width="71" height="71" viewBox="0 0 71 71" fill="none" xmlns="http://www.w3.org/2000/svg">
<path d="M47.1305 25.7706C46.8764 25.5163 46.5236 25.37 46.1641 25.37C45.8045 25.37 45.4518 25.5161 45.1975 25.7706C44.9432 26.025 44.7969 26.3776 44.7969 26.7372C44.7969 27.0968 44.943 27.4495 45.1975 27.7037C45.4518 27.9579 45.8045 28.1044 46.1641 28.1044C46.5236 28.1044 46.8764 27.9579 47.1305 27.7037C47.3848 27.4495 47.5313 27.0968 47.5313 26.7372C47.5313 26.3776 47.385 26.0249 47.1305 25.7706Z" fill="#454545" stroke="#454545"/>
<path d="M42.9047 45.7729C40.9452 45.7729 39.3511 44.3829 39.3511 42.6743C39.3511 40.9657 40.9452 39.5756 42.9047 39.5756C44.8641 39.5756 46.4581 40.9657 46.4581 42.6743C46.4581 43.4293 47.0704 44.0415 47.8253 44.0415C48.5803 44.0415 49.1925 43.4293 49.1925 42.6743C49.1925 39.8936 47.0835 37.5625 44.2719 36.9817V36.8446C44.2719 36.0896 43.6596 35.4774 42.9047 35.4774C42.1497 35.4774 41.5375 36.0896 41.5375 36.8446V36.9817C38.7257 37.5625 36.6167 39.8936 36.6167 42.6743C36.6167 45.8906 39.4375 48.5073 42.9047 48.5073C44.8641 48.5073 46.4581 49.8975 46.4581 51.606C46.4581 53.3146 44.8641 54.7048 42.9047 54.7048C40.9452 54.7048 39.3511 53.3147 39.3511 51.6062C39.3511 50.8512 38.7389 50.239 37.9839 50.239C37.2289 50.239 36.6167 50.8512 36.6167 51.6062C36.6167 54.3869 38.7257 56.7178 41.5375 57.2986V57.6452C41.5375 58.4002 42.1497 59.0124 42.9047 59.0124C43.6596 59.0124 44.2719 58.4002 44.2719 57.6452V57.2985C47.0835 56.7177 49.1925 54.3868 49.1925 51.606C49.1925 48.3897 46.3717 45.7729 42.9047 45.7729Z" fill="#454545" stroke="#454545"/>
<path d="M61.394 26.7671L53.3049 16.6538L57.3572 8.69913C58.2464 6.95363 57.9023 4.95494 56.4807 3.60744C55.059 2.2598 53.0447 2.02327 51.3491 3.00451C50.7844 3.33154 50.065 3.27453 49.5607 2.86437C45.697 -0.285775 40.0851 -0.290013 36.2068 2.863C35.7005 3.27466 34.9812 3.33154 34.4166 3.00437C32.7211 2.02314 30.7068 2.25966 29.2851 3.60744C27.8635 4.95494 27.5194 6.95377 28.4086 8.69913L32.4745 16.6802L27.763 22.5706C27.2915 23.1603 27.387 24.0205 27.9767 24.4924C28.5665 24.964 29.4266 24.8682 29.8984 24.2787L34.7555 18.2062H44.797V22.0429C44.797 22.7979 45.4092 23.4101 46.1642 23.4101C46.9191 23.4101 47.5313 22.7979 47.5313 22.0429V18.2062H49.6163V31.8638C49.6163 32.6188 50.2285 33.231 50.9835 33.231C51.7385 33.231 52.3507 32.6188 52.3507 31.8638V19.8384L59.2584 28.4749C64.7444 35.3338 67.7658 43.9482 67.7658 52.731C67.7658 61.014 61.027 67.7527 52.744 67.7527H33.0565C28.1062 67.7527 23.5914 65.3909 20.7754 61.3839C25.7985 58.7327 29.0903 56.0422 31.0112 53.0444C33.1094 49.7697 33.3484 46.5271 33.4307 42.9318C33.431 42.9213 33.4311 42.9109 33.4311 42.9005V31.5404C33.4311 31.0065 33.1203 30.5214 32.6353 30.2983L17.5368 23.3529C17.1743 23.186 16.7568 23.186 16.3943 23.3529L1.29584 30.2983C0.810762 30.5214 0.5 31.0065 0.5 31.5404V42.9005C0.5 42.9109 0.500137 42.9213 0.50041 42.9318C0.582852 46.5271 0.821837 49.7697 2.91993 53.0444C5.22651 56.6442 9.5076 59.8009 16.3926 62.9785C16.5743 63.0623 16.77 63.1043 16.9655 63.1043C17.161 63.1043 17.3566 63.0623 17.5383 62.9785C17.7991 62.8582 18.0547 62.7379 18.3079 62.6176C19.8209 64.8693 21.8392 66.7612 24.1915 68.119C26.8753 69.6682 29.9408 70.487 33.0564 70.487H52.7439C62.5346 70.487 70.5 62.5216 70.5 52.7309C70.5001 43.3298 67.2662 34.1088 61.394 26.7671ZM50.8386 15.4718H34.9275L30.8451 7.45799C30.3473 6.48086 30.965 5.78277 31.1662 5.59205C31.3675 5.40119 32.0985 4.82218 33.0466 5.37098C34.5875 6.26279 36.5503 6.10775 37.942 4.97627C40.8096 2.64548 44.969 2.64849 47.8343 4.98488C49.2157 6.10762 51.1786 6.26293 52.7191 5.37111C53.6678 4.8215 54.3985 5.40119 54.5997 5.59205C54.801 5.78277 55.4187 6.48086 54.921 7.45799L50.8386 15.4718ZM16.9656 60.2284C3.49838 53.8749 3.36932 48.775 3.23438 42.885V32.4165L16.9656 26.1L30.6969 32.4165V42.885C30.5618 48.775 30.4329 53.8749 16.9656 60.2284Z" fill="#454545" stroke="#454545"/>
<path d="M25.6948 38.6128C25.1609 38.0791 24.2955 38.0791 23.7615 38.6128L16.0999 46.2744L12.8565 43.031C12.3225 42.4973 11.457 42.4973 10.9229 43.031C10.389 43.5649 10.389 44.4306 10.9229 44.9647L15.133 49.1748C15.4 49.4417 15.7499 49.5752 16.0997 49.5752C16.4496 49.5752 16.7995 49.4417 17.0665 49.1748L25.6948 40.5465C26.2287 40.0126 26.2287 39.1469 25.6948 38.6128Z" fill="#454545" stroke="#454545"/>
</svg>
