<svg width="71" height="71" viewBox="0 0 71 71" fill="none" xmlns="http://www.w3.org/2000/svg">
<path d="M67.3086 44.0686L69.3113 42.0664C70.5717 40.8055 70.5717 38.7542 69.3113 37.4932C68.7004 36.8828 67.8886 36.5464 67.0245 36.5464C66.3762 36.5464 65.7566 36.7359 65.2301 37.089L64.8082 35.6726L66.9759 33.5044C68.2368 32.2434 68.2368 30.1921 66.9759 28.9317C65.8154 27.7707 63.9857 27.6815 62.7184 28.6583L60.1496 20.0343C61.1755 19.0463 62.1582 18.085 63.0842 17.159C65.7529 14.4897 67.9228 11.6651 69.1944 9.20417C71.3429 5.04493 70.4435 2.82164 69.3108 1.6889C68.1786 0.556166 65.9553 -0.342654 61.7955 1.80586C59.3351 3.07692 56.51 5.2468 53.8413 7.91602C52.9152 8.84208 51.9534 9.82421 50.9659 10.8501L42.3414 8.28132C43.3182 7.01453 43.229 5.18485 42.0685 4.02381C40.8076 2.76343 38.7563 2.76289 37.4959 4.02381L35.3276 6.19208L33.9108 5.77018C34.2638 5.24306 34.4534 4.62355 34.4534 3.97521C34.4534 3.11163 34.1169 2.29933 33.5065 1.6889C32.2461 0.427992 30.1942 0.427992 28.9339 1.6889L26.9317 3.69109L16.7264 0.651228C16.3627 0.543348 15.9696 0.642683 15.702 0.910781L13.075 3.53781C12.6339 3.97841 12.6921 4.73197 13.1952 5.09993L38.9443 23.9474C33.1385 30.4933 27.5458 37.0473 23.5976 41.7299L16.0235 38.8166C15.6428 38.6703 15.2118 38.7616 14.9234 39.05L11.8098 42.1636C11.4071 42.5668 11.4071 43.2199 11.8098 43.6226L27.3771 59.1899C27.7744 59.5878 28.4388 59.5878 28.8367 59.1899L31.9497 56.0769C32.2381 55.7885 32.3299 55.357 32.1831 54.9762L29.2703 47.4027C33.9529 43.4544 40.5064 37.8617 47.0529 32.0555L49.0983 34.8507C49.4615 35.3469 50.1979 35.4109 50.6433 34.988C51.0145 34.6355 51.0658 34.0443 50.764 33.632L48.6016 30.6776C52.0249 27.6222 55.4055 24.5397 58.4726 21.6349L68.1952 54.2739L66.8541 55.6144L53.4915 37.3581C53.155 36.8983 52.5093 36.7984 52.0495 37.1349C51.5892 37.4719 51.4893 38.1176 51.8263 38.5774L65.9003 57.8051C66.2683 58.3082 67.0218 58.3664 67.4624 57.9252L70.0895 55.2982C70.3576 55.0306 70.4569 54.637 70.349 54.2739L67.3086 44.0686ZM38.9555 5.48339C39.4062 5.03264 40.1587 5.03264 40.6094 5.48339C41.0655 5.93947 41.0655 6.68128 40.6094 7.13737L40.1256 7.62122L37.5765 6.86179L38.9555 5.48339ZM30.3934 3.14848C30.849 2.6924 31.5913 2.6924 32.0474 3.14848C32.5035 3.60457 32.5035 4.34638 32.0474 4.80246L31.7291 5.12023L29.1806 4.36133L30.3934 3.14848ZM15.3853 4.14557L16.7264 2.80509L49.3653 12.5271C46.4606 15.5947 43.378 18.9753 40.3221 22.3986L15.3853 4.14557ZM15.9087 40.9838L22.1919 43.4005C20.6159 45.2771 19.4073 46.7292 18.6944 47.5885L13.9989 42.8931L15.9087 40.9838ZM20.1604 49.0545C23.7578 44.7142 42.7729 21.903 55.3009 9.37507C57.7864 6.88903 60.4994 4.79872 62.743 3.63982C64.4274 2.7693 66.6811 1.97783 67.8518 3.14848C69.0224 4.31914 68.2304 6.57287 67.3604 8.25729C66.2015 10.5009 64.1107 13.2133 61.6246 15.6994C49.0978 28.2263 26.286 47.2419 21.9457 50.8399L20.1604 49.0545ZM30.0164 55.0915L28.1071 57.0008L23.4117 52.3053C24.2705 51.5929 25.7231 50.3843 27.5998 48.8083L30.0164 55.0915ZM66.1978 38.9528C66.6539 38.4967 67.3957 38.4967 67.8518 38.9528C68.3078 39.4089 68.3078 40.1507 67.8518 40.6068L66.6389 41.8196L65.8795 39.2711L66.1978 38.9528ZM63.8629 30.3908C64.3184 29.9347 65.0608 29.9352 65.5169 30.3908C65.9676 30.8415 65.9676 31.594 65.5169 32.0448L64.1379 33.4237L63.3785 30.8747L63.8629 30.3908Z" fill="#454545" stroke="#454545"/>
<path d="M62.4451 59.9323L53.639 68.7383C53.2636 69.1143 53.2385 69.7349 53.584 70.1386C53.9702 70.5894 54.6788 70.6177 55.0986 70.1979L63.9047 61.3918C64.3079 60.9886 64.3079 60.3355 63.9047 59.9323C63.502 59.5296 62.8483 59.5296 62.4451 59.9323Z" fill="#454545" stroke="#454545"/>
<path d="M59.501 56.9884C59.9042 56.5857 59.9042 55.932 59.501 55.5293C59.0983 55.1261 58.4447 55.1261 58.042 55.5293L52.538 61.0328C52.1625 61.4088 52.1374 62.0294 52.483 62.4331C52.8691 62.8839 53.5778 62.9122 53.9975 62.4924L59.501 56.9884Z" fill="#454545" stroke="#454545"/>
<path d="M56.1993 51.485C56.6025 51.0818 56.6025 50.4281 56.1993 50.0254C55.7961 49.6222 55.1429 49.6222 54.7397 50.0254L50.887 53.8781C50.5116 54.2536 50.4865 54.8747 50.8325 55.2784C51.2181 55.7292 51.9268 55.7575 52.3466 55.3377L56.1993 51.485Z" fill="#454545" stroke="#454545"/>
<path d="M11.0681 7.64576C10.6649 7.24308 10.0112 7.24308 9.6085 7.64576L0.802411 16.4524C0.399196 16.8551 0.399196 17.5088 0.802411 17.9114C1.19975 18.3088 1.86412 18.3088 2.26199 17.9114L11.0681 9.10534C11.4708 8.70213 11.4708 8.04897 11.0681 7.64576Z" fill="#454545" stroke="#454545"/>
<path d="M15.4709 12.0491C15.0677 11.6459 14.4146 11.6459 14.0119 12.0491L8.50788 17.5531C8.1319 17.9286 8.10733 18.5491 8.45287 18.9529C8.83899 19.4036 9.54716 19.4319 9.96693 19.0122L15.4709 13.5087C15.8741 13.1055 15.8741 12.4518 15.4709 12.0491Z" fill="#454545" stroke="#454545"/>
<path d="M15.6624 20.6635C16.0602 21.0608 16.7241 21.0608 17.1219 20.6635L20.9746 16.8108C21.3773 16.4076 21.3773 15.7544 20.9746 15.3512C20.5714 14.9485 19.9183 14.9485 19.5151 15.3512L15.6624 19.2039C15.2597 19.6071 15.2597 20.2603 15.6624 20.6635Z" fill="#454545" stroke="#454545"/>
</svg>
