<svg width="96" height="16" viewBox="0 0 96 16" fill="none" xmlns="http://www.w3.org/2000/svg">
<g clip-path="url(#clip0_46_425)">
<path d="M15.5754 5.72278L10.6568 4.97145L8.4521 0.275451C8.28743 -0.0752155 7.7121 -0.0752155 7.54743 0.275451L5.34343 4.97145L0.424766 5.72278C0.0207661 5.78478 -0.140567 6.27612 0.142766 6.56612L3.7161 10.2288L2.87143 15.4068C2.8041 15.8181 3.24343 16.1268 3.60677 15.9248L8.0001 13.4968L12.3934 15.9255C12.7534 16.1255 13.1968 15.8228 13.1288 15.4075L12.2841 10.2295L15.8574 6.56678C16.1408 6.27612 15.9788 5.78478 15.5754 5.72278Z" fill="#FFC107"/>
</g>
<g clip-path="url(#clip1_46_425)">
<path d="M35.5754 5.72278L30.6568 4.97145L28.4521 0.275451C28.2874 -0.0752155 27.7121 -0.0752155 27.5474 0.275451L25.3434 4.97145L20.4248 5.72278C20.0208 5.78478 19.8594 6.27612 20.1428 6.56612L23.7161 10.2288L22.8714 15.4068C22.8041 15.8181 23.2434 16.1268 23.6068 15.9248L28.0001 13.4968L32.3934 15.9255C32.7534 16.1255 33.1968 15.8228 33.1288 15.4075L32.2841 10.2295L35.8574 6.56678C36.1408 6.27612 35.9788 5.78478 35.5754 5.72278Z" fill="#FFC107"/>
</g>
<g clip-path="url(#clip2_46_425)">
<path d="M55.5754 5.72278L50.6568 4.97145L48.4521 0.275451C48.2874 -0.0752155 47.7121 -0.0752155 47.5474 0.275451L45.3434 4.97145L40.4248 5.72278C40.0208 5.78478 39.8594 6.27612 40.1428 6.56612L43.7161 10.2288L42.8714 15.4068C42.8041 15.8181 43.2434 16.1268 43.6068 15.9248L48.0001 13.4968L52.3934 15.9255C52.7534 16.1255 53.1968 15.8228 53.1288 15.4075L52.2841 10.2295L55.8574 6.56678C56.1408 6.27612 55.9788 5.78478 55.5754 5.72278Z" fill="#FFC107"/>
</g>
<g clip-path="url(#clip3_46_425)">
<path d="M75.5754 5.72278L70.6568 4.97145L68.4521 0.275451C68.2874 -0.0752155 67.7121 -0.0752155 67.5474 0.275451L65.3434 4.97145L60.4248 5.72278C60.0208 5.78478 59.8594 6.27612 60.1428 6.56612L63.7161 10.2288L62.8714 15.4068C62.8041 15.8181 63.2434 16.1268 63.6068 15.9248L68.0001 13.4968L72.3934 15.9255C72.7534 16.1255 73.1968 15.8228 73.1288 15.4075L72.2841 10.2295L75.8574 6.56678C76.1408 6.27612 75.9788 5.78478 75.5754 5.72278Z" fill="#FFC107"/>
</g>
<g clip-path="url(#clip4_46_425)">
<path d="M95.5754 5.72278L90.6568 4.97145L88.4521 0.275451C88.2874 -0.0752155 87.7121 -0.0752155 87.5474 0.275451L85.3434 4.97145L80.4248 5.72278C80.0208 5.78478 79.8594 6.27612 80.1428 6.56612L83.7161 10.2288L82.8714 15.4068C82.8041 15.8181 83.2434 16.1268 83.6068 15.9248L88.0001 13.4968L92.3934 15.9255C92.7534 16.1255 93.1968 15.8228 93.1288 15.4075L92.2841 10.2295L95.8574 6.56678C96.1408 6.27612 95.9788 5.78478 95.5754 5.72278Z" fill="#D8D8D8"/>
</g>
<defs>
<clipPath id="clip0_46_425">
<rect width="16" height="16" fill="white"/>
</clipPath>
<clipPath id="clip1_46_425">
<rect width="16" height="16" fill="white" transform="translate(20)"/>
</clipPath>
<clipPath id="clip2_46_425">
<rect width="16" height="16" fill="white" transform="translate(40)"/>
</clipPath>
<clipPath id="clip3_46_425">
<rect width="16" height="16" fill="white" transform="translate(60)"/>
</clipPath>
<clipPath id="clip4_46_425">
<rect width="16" height="16" fill="white" transform="translate(80)"/>
</clipPath>
</defs>
</svg>
