<svg width="25" height="24" viewBox="0 0 25 24" fill="none" xmlns="http://www.w3.org/2000/svg">
<path d="M15.1107 6.64357H14.227V5.3685C14.2269 2.40813 11.8186 0 8.85831 0C5.89805 0 3.48959 2.40847 3.48959 5.3685V6.64357H2.60588C1.16904 6.64357 0 7.81261 0 9.24944V21.3941C0 22.8313 1.16904 24 2.60588 24H15.1106C16.5475 24 17.7165 22.8312 17.7165 21.3941V9.24944C17.7165 7.81261 16.5475 6.64357 15.1107 6.64357ZM5.18963 5.3685C5.18963 3.34569 6.83528 1.70005 8.85831 1.70005C10.8811 1.70005 12.5268 3.34569 12.5268 5.3685V6.64357H5.18963V5.3685ZM16.0166 21.3941C16.0166 21.894 15.61 22.2999 15.1107 22.2999H2.60577C2.10626 22.2999 1.69994 21.8936 1.69994 21.3941V9.24944C1.69994 8.74994 2.10626 8.34361 2.60577 8.34361H3.48947V9.53567C3.21632 9.77363 3.04013 10.1202 3.04013 10.5112C3.04013 11.2289 3.62186 11.8109 4.33955 11.8109C5.05702 11.8109 5.63897 11.2289 5.63897 10.5112C5.63897 10.1205 5.46268 9.77397 5.18963 9.53567V8.34361H12.5268V9.53567C12.2536 9.77363 12.0774 10.1202 12.0774 10.5112C12.0774 11.2289 12.6591 11.8109 13.3768 11.8109C14.0945 11.8109 14.6763 11.2289 14.6763 10.5112C14.6763 10.1205 14.5 9.77363 14.2269 9.53567V8.34361H15.1106C15.6101 8.34361 16.0165 8.74994 16.0165 9.24944V21.3941H16.0166Z" fill="#454545"/>
<circle cx="17.8584" cy="8" r="7" fill="#F6623E"/>
<path d="M15.2584 8.5C15.2584 7.8 15.3684 7.18 15.5884 6.64C15.8084 6.1 16.1117 5.67667 16.4984 5.37C16.8917 5.05667 17.3451 4.9 17.8584 4.9C18.3717 4.9 18.8217 5.05667 19.2084 5.37C19.6017 5.67667 19.9084 6.1 20.1284 6.64C20.3484 7.18 20.4584 7.8 20.4584 8.5C20.4584 9.2 20.3484 9.82 20.1284 10.36C19.9084 10.9 19.6017 11.3267 19.2084 11.64C18.8217 11.9467 18.3717 12.1 17.8584 12.1C17.3451 12.1 16.8917 11.9467 16.4984 11.64C16.1117 11.3267 15.8084 10.9 15.5884 10.36C15.3684 9.82 15.2584 9.2 15.2584 8.5ZM16.1084 8.5C16.1084 9.04 16.1784 9.52333 16.3184 9.95C16.4651 10.37 16.6684 10.7 16.9284 10.94C17.1884 11.18 17.4984 11.3 17.8584 11.3C18.2184 11.3 18.5284 11.18 18.7884 10.94C19.0551 10.7 19.2584 10.37 19.3984 9.95C19.5384 9.52333 19.6084 9.04 19.6084 8.5C19.6084 7.95333 19.5384 7.47 19.3984 7.05C19.2584 6.63 19.0551 6.3 18.7884 6.06C18.5284 5.82 18.2184 5.7 17.8584 5.7C17.4984 5.7 17.1884 5.82 16.9284 6.06C16.6684 6.3 16.4651 6.63 16.3184 7.05C16.1784 7.47 16.1084 7.95333 16.1084 8.5Z" fill="white"/>
</svg>
